<svg xmlns="http://www.w3.org/2000/svg" width="1200" height="900" viewBox="0 0 1200 900"><title>Percentage vocabulary reference</title><rect width="1200" height="900" fill="#F7FAFC"/><rect x="64" y="64" width="1072" height="772" rx="40" fill="#FFFFFF"/><text x="145" y="225" font-family="Arial, sans-serif" font-size="64" font-weight="700" text-anchor="start" fill="#15324F">Percentage</text><text x="145" y="445" font-family="Arial, sans-serif" font-size="180" font-weight="700" text-anchor="start" fill="#15324F">25%</text><text x="150" y="555" font-family="Arial, sans-serif" font-size="48" font-weight="700" text-anchor="start" fill="#15324F">25 out of 100</text><rect x="680" y="270" width="29" height="29" rx="5" fill="#0F5E60" stroke="#0F5E60" stroke-width="2"/><rect x="716" y="270" width="29" height="29" rx="5" fill="#0F5E60" stroke="#0F5E60" stroke-width="2"/><rect x="752" y="270" width="29" height="29" rx="5" fill="#0F5E60" stroke="#0F5E60" stroke-width="2"/><rect x="788" y="270" width="29" height="29" rx="5" fill="#0F5E60" stroke="#0F5E60" stroke-width="2"/><rect x="824" y="270" width="29" height="29" rx="5" fill="#0F5E60" stroke="#0F5E60" stroke-width="2"/><rect x="860" y="270" width="29" height="29" rx="5" fill="#0F5E60" stroke="#0F5E60" stroke-width="2"/><rect x="896" y="270" width="29" height="29" rx="5" fill="#0F5E60" stroke="#0F5E60" stroke-width="2"/><rect x="932" y="270" width="29" height="29" rx="5" fill="#0F5E60" stroke="#0F5E60" stroke-width="2"/><rect x="968" y="270" width="29" height="29" rx="5" fill="#0F5E60" stroke="#0F5E60" stroke-width="2"/><rect x="1004" y="270" width="29" height="29" rx="5" fill="#0F5E60" stroke="#0F5E60" stroke-width="2"/><rect x="680" y="306" width="29" height="29" rx="5" fill="#0F5E60" stroke="#0F5E60" stroke-width="2"/><rect x="716" y="306" width="29" height="29" rx="5" fill="#0F5E60" stroke="#0F5E60" stroke-width="2"/><rect x="752" y="306" width="29" height="29" rx="5" fill="#0F5E60" stroke="#0F5E60" stroke-width="2"/><rect x="788" y="306" width="29" height="29" rx="5" fill="#0F5E60" stroke="#0F5E60" stroke-width="2"/><rect x="824" y="306" width="29" height="29" rx="5" fill="#0F5E60" stroke="#0F5E60" stroke-width="2"/><rect x="860" y="306" width="29" height="29" rx="5" fill="#0F5E60" stroke="#0F5E60" stroke-width="2"/><rect x="896" y="306" width="29" height="29" rx="5" fill="#0F5E60" stroke="#0F5E60" stroke-width="2"/><rect x="932" y="306" width="29" height="29" rx="5" fill="#0F5E60" stroke="#0F5E60" stroke-width="2"/><rect x="968" y="306" width="29" height="29" rx="5" fill="#0F5E60" stroke="#0F5E60" stroke-width="2"/><rect x="1004" y="306" width="29" height="29" rx="5" fill="#0F5E60" stroke="#0F5E60" stroke-width="2"/><rect x="680" y="342" width="29" height="29" rx="5" fill="#0F5E60" stroke="#0F5E60" stroke-width="2"/><rect x="716" y="342" width="29" height="29" rx="5" fill="#0F5E60" stroke="#0F5E60" stroke-width="2"/><rect x="752" y="342" width="29" height="29" rx="5" fill="#0F5E60" stroke="#0F5E60" stroke-width="2"/><rect x="788" y="342" width="29" height="29" rx="5" fill="#0F5E60" stroke="#0F5E60" stroke-width="2"/><rect x="824" y="342" width="29" height="29" rx="5" fill="#0F5E60" stroke="#0F5E60" stroke-width="2"/><rect x="860" y="342" width="29" height="29" rx="5" fill="#FFFFFF" stroke="#6B7F91" stroke-width="2"/><rect x="896" y="342" width="29" height="29" rx="5" fill="#FFFFFF" stroke="#6B7F91" stroke-width="2"/><rect x="932" y="342" width="29" height="29" rx="5" fill="#FFFFFF" stroke="#6B7F91" stroke-width="2"/><rect x="968" y="342" width="29" height="29" rx="5" fill="#FFFFFF" stroke="#6B7F91" stroke-width="2"/><rect x="1004" y="342" width="29" height="29" rx="5" fill="#FFFFFF" stroke="#6B7F91" stroke-width="2"/><rect x="680" y="378" width="29" height="29" rx="5" fill="#FFFFFF" stroke="#6B7F91" stroke-width="2"/><rect x="716" y="378" width="29" height="29" rx="5" fill="#FFFFFF" stroke="#6B7F91" stroke-width="2"/><rect x="752" y="378" width="29" height="29" rx="5" fill="#FFFFFF" stroke="#6B7F91" stroke-width="2"/><rect x="788" y="378" width="29" height="29" rx="5" fill="#FFFFFF" stroke="#6B7F91" stroke-width="2"/><rect x="824" y="378" width="29" height="29" rx="5" fill="#FFFFFF" stroke="#6B7F91" stroke-width="2"/><rect x="860" y="378" width="29" height="29" rx="5" fill="#FFFFFF" stroke="#6B7F91" stroke-width="2"/><rect x="896" y="378" width="29" height="29" rx="5" fill="#FFFFFF" stroke="#6B7F91" stroke-width="2"/><rect x="932" y="378" width="29" height="29" rx="5" fill="#FFFFFF" stroke="#6B7F91" stroke-width="2"/><rect x="968" y="378" width="29" height="29" rx="5" fill="#FFFFFF" stroke="#6B7F91" stroke-width="2"/><rect x="1004" y="378" width="29" height="29" rx="5" fill="#FFFFFF" stroke="#6B7F91" stroke-width="2"/><rect x="680" y="414" width="29" height="29" rx="5" fill="#FFFFFF" stroke="#6B7F91" stroke-width="2"/><rect x="716" y="414" width="29" height="29" rx="5" fill="#FFFFFF" stroke="#6B7F91" stroke-width="2"/><rect x="752" y="414" width="29" height="29" rx="5" fill="#FFFFFF" stroke="#6B7F91" stroke-width="2"/><rect x="788" y="414" width="29" height="29" rx="5" fill="#FFFFFF" stroke="#6B7F91" stroke-width="2"/><rect x="824" y="414" width="29" height="29" rx="5" fill="#FFFFFF" stroke="#6B7F91" stroke-width="2"/><rect x="860" y="414" width="29" height="29" rx="5" fill="#FFFFFF" stroke="#6B7F91" stroke-width="2"/><rect x="896" y="414" width="29" height="29" rx="5" fill="#FFFFFF" stroke="#6B7F91" stroke-width="2"/><rect x="932" y="414" width="29" height="29" rx="5" fill="#FFFFFF" stroke="#6B7F91" stroke-width="2"/><rect x="968" y="414" width="29" height="29" rx="5" fill="#FFFFFF" stroke="#6B7F91" stroke-width="2"/><rect x="1004" y="414" width="29" height="29" rx="5" fill="#FFFFFF" stroke="#6B7F91" stroke-width="2"/><rect x="680" y="450" width="29" height="29" rx="5" fill="#FFFFFF" stroke="#6B7F91" stroke-width="2"/><rect x="716" y="450" width="29" height="29" rx="5" fill="#FFFFFF" stroke="#6B7F91" stroke-width="2"/><rect x="752" y="450" width="29" height="29" rx="5" fill="#FFFFFF" stroke="#6B7F91" stroke-width="2"/><rect x="788" y="450" width="29" height="29" rx="5" fill="#FFFFFF" stroke="#6B7F91" stroke-width="2"/><rect x="824" y="450" width="29" height="29" rx="5" fill="#FFFFFF" stroke="#6B7F91" stroke-width="2"/><rect x="860" y="450" width="29" height="29" rx="5" fill="#FFFFFF" stroke="#6B7F91" stroke-width="2"/><rect x="896" y="450" width="29" height="29" rx="5" fill="#FFFFFF" stroke="#6B7F91" stroke-width="2"/><rect x="932" y="450" width="29" height="29" rx="5" fill="#FFFFFF" stroke="#6B7F91" stroke-width="2"/><rect x="968" y="450" width="29" height="29" rx="5" fill="#FFFFFF" stroke="#6B7F91" stroke-width="2"/><rect x="1004" y="450" width="29" height="29" rx="5" fill="#FFFFFF" stroke="#6B7F91" stroke-width="2"/><rect x="680" y="486" width="29" height="29" rx="5" fill="#FFFFFF" stroke="#6B7F91" stroke-width="2"/><rect x="716" y="486" width="29" height="29" rx="5" fill="#FFFFFF" stroke="#6B7F91" stroke-width="2"/><rect x="752" y="486" width="29" height="29" rx="5" fill="#FFFFFF" stroke="#6B7F91" stroke-width="2"/><rect x="788" y="486" width="29" height="29" rx="5" fill="#FFFFFF" stroke="#6B7F91" stroke-width="2"/><rect x="824" y="486" width="29" height="29" rx="5" fill="#FFFFFF" stroke="#6B7F91" stroke-width="2"/><rect x="860" y="486" width="29" height="29" rx="5" fill="#FFFFFF" stroke="#6B7F91" stroke-width="2"/><rect x="896" y="486" width="29" height="29" rx="5" fill="#FFFFFF" stroke="#6B7F91" stroke-width="2"/><rect x="932" y="486" width="29" height="29" rx="5" fill="#FFFFFF" stroke="#6B7F91" stroke-width="2"/><rect x="968" y="486" width="29" height="29" rx="5" fill="#FFFFFF" stroke="#6B7F91" stroke-width="2"/><rect x="1004" y="486" width="29" height="29" rx="5" fill="#FFFFFF" stroke="#6B7F91" stroke-width="2"/><rect x="680" y="522" width="29" height="29" rx="5" fill="#FFFFFF" stroke="#6B7F91" stroke-width="2"/><rect x="716" y="522" width="29" height="29" rx="5" fill="#FFFFFF" stroke="#6B7F91" stroke-width="2"/><rect x="752" y="522" width="29" height="29" rx="5" fill="#FFFFFF" stroke="#6B7F91" stroke-width="2"/><rect x="788" y="522" width="29" height="29" rx="5" fill="#FFFFFF" stroke="#6B7F91" stroke-width="2"/><rect x="824" y="522" width="29" height="29" rx="5" fill="#FFFFFF" stroke="#6B7F91" stroke-width="2"/><rect x="860" y="522" width="29" height="29" rx="5" fill="#FFFFFF" stroke="#6B7F91" stroke-width="2"/><rect x="896" y="522" width="29" height="29" rx="5" fill="#FFFFFF" stroke="#6B7F91" stroke-width="2"/><rect x="932" y="522" width="29" height="29" rx="5" fill="#FFFFFF" stroke="#6B7F91" stroke-width="2"/><rect x="968" y="522" width="29" height="29" rx="5" fill="#FFFFFF" stroke="#6B7F91" stroke-width="2"/><rect x="1004" y="522" width="29" height="29" rx="5" fill="#FFFFFF" stroke="#6B7F91" stroke-width="2"/><rect x="680" y="558" width="29" height="29" rx="5" fill="#FFFFFF" stroke="#6B7F91" stroke-width="2"/><rect x="716" y="558" width="29" height="29" rx="5" fill="#FFFFFF" stroke="#6B7F91" stroke-width="2"/><rect x="752" y="558" width="29" height="29" rx="5" fill="#FFFFFF" stroke="#6B7F91" stroke-width="2"/><rect x="788" y="558" width="29" height="29" rx="5" fill="#FFFFFF" stroke="#6B7F91" stroke-width="2"/><rect x="824" y="558" width="29" height="29" rx="5" fill="#FFFFFF" stroke="#6B7F91" stroke-width="2"/><rect x="860" y="558" width="29" height="29" rx="5" fill="#FFFFFF" stroke="#6B7F91" stroke-width="2"/><rect x="896" y="558" width="29" height="29" rx="5" fill="#FFFFFF" stroke="#6B7F91" stroke-width="2"/><rect x="932" y="558" width="29" height="29" rx="5" fill="#FFFFFF" stroke="#6B7F91" stroke-width="2"/><rect x="968" y="558" width="29" height="29" rx="5" fill="#FFFFFF" stroke="#6B7F91" stroke-width="2"/><rect x="1004" y="558" width="29" height="29" rx="5" fill="#FFFFFF" stroke="#6B7F91" stroke-width="2"/><rect x="680" y="594" width="29" height="29" rx="5" fill="#FFFFFF" stroke="#6B7F91" stroke-width="2"/><rect x="716" y="594" width="29" height="29" rx="5" fill="#FFFFFF" stroke="#6B7F91" stroke-width="2"/><rect x="752" y="594" width="29" height="29" rx="5" fill="#FFFFFF" stroke="#6B7F91" stroke-width="2"/><rect x="788" y="594" width="29" height="29" rx="5" fill="#FFFFFF" stroke="#6B7F91" stroke-width="2"/><rect x="824" y="594" width="29" height="29" rx="5" fill="#FFFFFF" stroke="#6B7F91" stroke-width="2"/><rect x="860" y="594" width="29" height="29" rx="5" fill="#FFFFFF" stroke="#6B7F91" stroke-width="2"/><rect x="896" y="594" width="29" height="29" rx="5" fill="#FFFFFF" stroke="#6B7F91" stroke-width="2"/><rect x="932" y="594" width="29" height="29" rx="5" fill="#FFFFFF" stroke="#6B7F91" stroke-width="2"/><rect x="968" y="594" width="29" height="29" rx="5" fill="#FFFFFF" stroke="#6B7F91" stroke-width="2"/><rect x="1004" y="594" width="29" height="29" rx="5" fill="#FFFFFF" stroke="#6B7F91" stroke-width="2"/></svg>